# AST/ASF file generated using VICON BodyLanguage
# -----------------------------------------------
:version 1.10
:name VICON
:units
  mass 1.0
  length 0.45
  angle deg
:documentation
   .ast/.asf automatically generated from VICON data using
   VICON BodyBuilder and BodyLanguage model FoxedUp or BRILLIANT.MOD
:root
   order TX TY TZ RX RY RZ
   axis XYZ
   position 0 0 0  
   orientation 0 0 0 
:bonedata
  begin
     id 1 
     name lhipjoint
     direction 0.630082 -0.636569 0.44472 
     length 2.82754 
     axis 0 0 0  XYZ
  end
  begin
     id 2 
     name lfemur
     direction 0.34202 -0.939693 0  
     length 7.26371  
     axis 0 0 20  XYZ
    dof rx ry rz
    limits (-160.0 20.0)
           (-70.0 70.0)
           (-60.0 70.0)
  end
  begin
     id 3 
     name ltibia
     direction 0.34202 -0.939693 0   
     length 7.88616   
     axis 0 0 20   XYZ
    dof rx
    limits (-10.0 170.0)
  end
  begin
     id 4 
     name lfoot
     direction 0.0603448 -0.165796 0.984312   
     length 1.77861   
     axis -90 7.62852e-016 20   XYZ
    dof rx rz
    limits (-45.0 90.0)
           (-70.0 20.0)
  end
  begin
     id 5 
     name ltoes
     direction 1.53577e-011 -4.21876e-011 1   
     length 0.902235   
     axis -90 7.62852e-016 20   XYZ
    dof rx
    limits (-90.0 20.0)
  end
  begin
     id 6 
     name rhipjoint
     direction -0.656778 -0.61817 0.431866   
     length 2.9117  
     axis 0 0 0  XYZ 
  end
  begin
     id 7 
     name rfemur
     direction -0.34202 -0.939693 0   
     length 6.81603   
     axis 0 0 -20   XYZ
    dof rx ry rz
    limits (-160.0 20.0)
           (-70.0 70.0)
           (-70.0 60.0)
  end
  begin
     id 8 
     name rtibia
     direction -0.34202 -0.939693 0   
     length 8.05997   
     axis 0 0 -20   XYZ
    dof rx
    limits (-10.0 170.0)
 end
 begin
     id 9 
     name rfoot
     direction -0.0862404 -0.236944 0.967688   
     length 1.84899  
     axis -90 -7.62852e-016 -20   XYZ
    dof rx rz
    limits (-45.0 90.0)
           (-20.0 70.0)
  end
  begin
     id 10 
     name rtoes
     direction -1.53561e-011 -4.21798e-011 1   
     length 0.931579   
     axis -90 -7.62852e-016 -20   XYZ
    dof rx
    limits (-90.0 20.0)
  end
  begin
     id 11 
     name lowerback
     direction -0.0110203 0.991769 -0.127564   
     length 2.05686   
     axis 0 0 0   XYZ
    dof rx ry rz
    limits (-20.0 45.0)
           (-30.0 30.0)
           (-30.0 30.0)
  end
  begin
     id 12 
     name upperback
     direction 0.0109719 0.99993 -0.00432479   
     length 2.06234   
     axis 0 0 0   XYZ
    dof rx ry rz
    limits (-20.0 45.0)
           (-30.0 30.0)
           (-30.0 30.0)
  end
  begin
     id 13 
     name thorax
     direction 0.0173308 0.998351 0.0547306   
     length 2.09856   
     axis 0 0 0   XYZ
    dof rx ry rz
    limits (-20.0 45.0)
           (-30.0 30.0)
           (-30.0 30.0)
  end
  begin
     id 14 
     name lowerneck
     direction -0.0311736 0.989033 0.144366   
     length 1.98151   
     axis 0 0 0   XYZ
    dof rx ry rz
    limits (-20.0 45.0)
           (-30.0 30.0)
           (-30.0 30.0)
  end
  begin
     id 15 
     name upperneck
     direction 0.0421057 0.975772 -0.214698   
     length 2.01457   
     axis 0 0 0   XYZ
    dof rx ry rz
    limits (-20.0 45.0)
           (-30.0 30.0)
           (-30.0 30.0)
  end
  begin
     id 16
     name head
     direction 0.0136911 0.995958 -0.0887718  
     length 2.03562  
     axis 0 0 0   XYZ
    dof rx ry rz
    limits (-20.0 45.0)
           (-30.0 30.0)
           (-30.0 30.0)
  end
  begin
     id 17 
     name lclavicle
     direction 0.915335 0.396201 0.0720134  
     length 4.16217  
     axis 0 0 0   XYZ
    dof ry rz
    limits (-20.0 10.0)
           (0.0 20.0)
  end
  begin
     id 18 
     name lhumerus
     direction 1 -4.48965e-011 6.383e-018   
     length 4.93042   
     axis -180 -30 -90   XYZ
    dof rx ry rz
    limits (-60.0 90.0)
           (-90.0 90.0)
           (-90.0 90.0)
  end
  begin
     id 19
     name lradius
     direction 1 -4.48972e-011 8.8689e-027   
     length 3.68177   
     axis -180 -30 -90   XYZ
    dof rx
    limits (-10.0 170.0)
  end
  begin
     id 20
     name lwrist
     direction 1 -4.48953e-011 1.17971e-026   
     length 1.84089   
     axis -7.69454e-015 90 90   XYZ
    dof ry
    limits (-180.0 0.0)
 end
  begin
     id 21 
     name lhand
     direction 1 -4.49027e-011 2.35802e-026   
     length 0.721479   
     axis -1.50533e-014 90 90   XYZ
    dof rx rz
    limits (-90.0 90.0)
           (-45.0 45.0)
  end
  begin
     id 22 
     name lfingers
     direction 1 -4.48915e-011 4.72027e-026   
     length 0.581675   
     axis -3.01059e-014 90 90   XYZ
    dof rx
    limits (0.0 90.0)
  end
  begin
     id 23
     name lthumb
     direction 0.707107 -6.34948e-011 0.707107   
     length 0.835172   
     axis -90 45 -5.12164e-014   XYZ
    dof rx rz
    limits (-45.0 45.0)
           (-45.0 45.0)
  end
  begin
     id 24 
     name rclavicle
     direction -0.882781 0.469197 0.0234974   
     length 3.95647  
     axis 0 0 0   XYZ 
    dof ry rz
    limits (-10.0 20.0)
           (-20.0 0.0)
  end
  begin
     id 25 
     name rhumerus
     direction -1 -4.48965e-011 -1.54906e-018  
     length 5.07905   
     axis -180 30 90   XYZ
    dof rx ry rz
    limits (-90.0 60.0)
           (-90.0 90.0)
           (-90.0 90.0)
  end
  begin
     id 26 
     name rradius
     direction -1 -4.48972e-011 5.47489e-027   
     length 3.54394   
     axis -180 30 90   XYZ
    dof rx
    limits (-10.0 170.0)
  end
  begin
     id 27 
     name rwrist
     direction -1 -4.48955e-011 1.17969e-026   
     length 1.77197   
     axis -7.69454e-015 -90 -90   XYZ
    dof ry
    limits (-180.0 0.0)
  end
  begin
     id 28
     name rhand
     direction -1 -4.48982e-011 2.35888e-026   
     length 0.681156   
     axis -1.50533e-014 -90 -90   XYZ
    dof rx rz
    limits (-90.0 90.0)
           (-45.0 45.0)
  end
  begin
     id 29
     name rfingers
     direction -1 -4.48955e-011 4.71877e-026   
     length 0.549165   
     axis -3.01059e-014 -90 -90   XYZ
    dof rx
    limits (0.0 90.0)
  end
  begin
     id 30
     name rthumb
     direction -0.707107 -6.3491e-011 0.707107   
     length 0.788495   
     axis -90 -45 5.12164e-014   XYZ
    dof rx rz
    limits (-45.0 45.0)
           (-45.0 45.0)
  end
:hierarchy
  begin
    root lhipjoint rhipjoint lowerback
    lhipjoint lfemur
    lfemur ltibia
    ltibia lfoot
    lfoot ltoes
    rhipjoint rfemur
    rfemur rtibia
    rtibia rfoot
    rfoot rtoes
    lowerback upperback
    upperback thorax
    thorax lowerneck lclavicle rclavicle
    lowerneck upperneck
    upperneck head
    lclavicle lhumerus
    lhumerus lradius
    lradius lwrist
    lwrist lhand lthumb
    lhand lfingers
    rclavicle rhumerus
    rhumerus rradius
    rradius rwrist
    rwrist rhand rthumb
    rhand rfingers
  end

#!OML:ASF H:\Bending\Project 1\Capture day 1\Session 1\Subject.ASF
:FULLY-SPECIFIED
:DEGREES
1
root -10.6245 17.9345 -16.4668 -131.271 88.7266 -133.172
lowerback 6.03449 -0.317405 -0.00935127
upperback -1.86592 -0.303955 2.04993
thorax -5.31454 -0.107037 2.16722
lowerneck -24.2776 -4.16997 -6.43682
upperneck 30.682 -4.44458 3.97029
head 15.0127 -1.91714 1.90813
rclavicle 4.46023e-015 -8.74653e-015
rhumerus -36.9613 -1.48831 -78.5168
rradius 27.1597
rwrist 25.9935
rhand -16.3622 -11.3707
rfingers 7.12502
rthumb 9.85076 -41.1202
lclavicle 4.46023e-015 -8.74653e-015
lhumerus -33.6431 8.82416 88.5499
lradius 23.1825
lwrist 11.6211
lhand -30.7621 8.92911
lfingers 7.12502
lthumb -4.05337 38.8703
rfemur 6.48208 -9.62361 12.6215
rtibia -8.74653e-015
rfoot -8.93591 -11.9128
rtoes 6.76711
lfemur -7.67623 -16.1644 -10.5671
ltibia 20.6335
lfoot -19.6642 9.90998
ltoes -11.4121
2
root -10.6209 17.9304 -16.4663 -130.586 88.7012 -132.358
lowerback 6.13579 -0.287509 0.0754364
upperback -1.80345 -0.257995 2.03419
thorax -5.3089 -0.0877895 2.09863
lowerneck -24.2313 -4.13714 -6.31782
upperneck 30.7091 -4.42412 3.9066
head 15.0076 -1.90288 1.8665
rclavicle -2.90723e-015 1.66979e-014
rhumerus -36.9266 -1.82164 -78.3901
rradius 27.0032
rwrist 26.3677
rhand -16.3144 -11.2341
rfingers 7.12502
rthumb 9.89685 -40.9815
lclavicle -2.90723e-015 1.66979e-014
lhumerus -33.6032 8.79499 88.5459
lradius 23.2416
lwrist 11.666
lhand -30.7305 8.92297
lfingers 7.12502
lthumb -4.0229 38.8647
rfemur 6.61526 -9.61002 12.6306
rtibia 2.46493e-014
rfoot -8.90113 -11.9303
rtoes 6.52494
lfemur -7.57461 -15.8082 -10.5599
ltibia 20.7003
lfoot -19.4932 9.60017
ltoes -11.8625
3
root -10.6167 17.9264 -16.4648 -131.009 88.6939 -132.66
lowerback 6.22989 -0.251825 0.139004
upperback -1.74553 -0.207108 2.00077
thorax -5.30388 -0.0657645 2.02294
lowerneck -24.1536 -4.10663 -6.18546
upperneck 30.724 -4.41123 3.83525
head 14.9899 -1.89151 1.81798
rclavicle 3.10601e-017 1.27222e-014
rhumerus -36.8895 -2.20009 -78.2549
rradius 26.8539
rwrist 26.7799
rhand -16.1508 -11.0313
rfingers 7.12502
rthumb 10.0547 -40.7711
lclavicle 3.10601e-017 1.27222e-014
lhumerus -33.5807 8.7461 88.5223
lradius 23.3094
lwrist 11.7536
lhand -30.6819 8.92645
lfingers 7.12502
lthumb -3.97592 38.8691
rfemur 6.74312 -9.60427 12.6077
rtibia -5.56597e-015
rfoot -8.86247 -11.946
rtoes 6.41905
lfemur -7.44659 -15.5121 -10.584
ltibia 20.7089
lfoot -19.3215 9.3344
ltoes -12.2351
4
root -10.6118 17.9224 -16.462 -132.467 88.7112 -134.008
lowerback 6.31685 -0.217029 0.16775
upperback -1.69734 -0.160725 1.95934
thorax -5.30458 -0.0449429 1.95895
lowerneck -24.0581 -4.07047 -6.06082
upperneck 30.7499 -4.38634 3.76259
head 14.9729 -1.87602 1.77308
rclavicle -4.5969e-016 -1.31198e-014
rhumerus -36.8609 -2.51008 -78.145
rradius 26.7348
rwrist 27.1239
rhand -15.9315 -10.8358
rfingers 7.12502
rthumb 10.2663 -40.5653
lclavicle -4.5969e-016 -1.31198e-014
lhumerus -33.5801 8.70854 88.4799
lradius 23.3725
lwrist 11.884
lhand -30.6379 8.93223
lfingers 7.12502
lthumb -3.93344 38.8757
rfemur 6.86442 -9.60107 12.5511
rtibia -1.90833e-014
rfoot -8.82825 -11.9546
rtoes 6.43047
lfemur -7.32747 -15.2712 -10.6406
ltibia 20.7208
lfoot -19.1947 9.10886
ltoes -12.4586
5
root -10.6066 17.9182 -16.4587 -134.515 88.7517 -135.954
lowerback 6.40271 -0.18924 0.166648
upperback -1.66093 -0.125954 1.91907
thorax -5.31645 -0.0287758 1.91428
lowerneck -23.9677 -4.02174 -5.9609
upperneck 30.8164 -4.33474 3.69995
head 14.9749 -1.85003 1.74269
rclavicle 7.51655e-016 1.31198e-014
rhumerus -36.8496 -2.66143 -78.0913
rradius 26.659
rwrist 27.3023
rhand -15.7394 -10.7449
rfingers 7.12502
rthumb 10.4516 -40.4651
lclavicle 7.51655e-016 1.31198e-014
lhumerus -33.6003 8.71951 88.417
lradius 23.4132
lwrist 12.0352
lhand -30.6158 8.93257
lfingers 7.12502
lthumb -3.91218 38.8764
rfemur 6.98124 -9.59112 12.471
rtibia -8.74653e-015
rfoot -8.79553 -11.9586
rtoes 6.44903
lfemur -7.20631 -15.0871 -10.722
ltibia 20.7218
lfoot -19.1215 8.94048
ltoes -12.5099
6
root -10.6007 17.914 -16.4551 -136.516 88.806 -137.871
lowerback 6.47582 -0.172005 0.148274
upperback -1.63703 -0.106193 1.88686
thorax -5.33361 -0.0192159 1.8893
lowerneck -23.9068 -3.95847 -5.8902
upperneck 30.9479 -4.25351 3.65645
head 15.013 -1.81104 1.73217
rclavicle -1.78285e-015 -5.1684e-015
rhumerus -36.8582 -2.62896 -78.1075
rradius 26.6266
rwrist 27.2757
rhand -15.6453 -10.8259
rfingers 7.12502
rthumb 10.5423 -40.5416
lclavicle -1.78285e-015 -5.1684e-015
lhumerus -33.6333 8.80777 88.3296
lradius 23.414
lwrist 12.1669
lhand -30.621 8.92268
lfingers 7.12502
lthumb -3.91714 38.8664
rfemur 7.08468 -9.56974 12.3901
rtibia -3.65764e-014
rfoot -8.75606 -11.9646
rtoes 6.35058
lfemur -7.09945 -14.9511 -10.8072
ltibia 20.7301
lfoot -19.1127 8.82857
ltoes -12.4355
7
root -10.5942 17.9098 -16.4517 -137.812 88.8623 -139.105
lowerback 6.52679 -0.165096 0.13098
upperback -1.62236 -0.0996248 1.86424
thorax -5.34741 -0.01596 1.87504
lowerneck -23.8916 -3.88477 -5.83797
upperneck 31.1524 -4.15192 3.63074
head 15.0948 -1.76175 1.73733
rclavicle -3.01904e-015 3.57812e-014
rhumerus -36.8804 -2.46668 -78.1809
rradius 26.6254
rwrist 27.0902
rhand -15.6763 -11.0697
rfingers 7.12502
rthumb 10.5124 -40.7868
lclavicle -3.01904e-015 3.57812e-014
lhumerus -33.6655 8.98302 88.2129
lradius 23.3635
lwrist 12.2308
lhand -30.6473 8.90202
lfingers 7.12502
lthumb -3.94258 38.8453
rfemur 7.16834 -9.53713 12.3302
rtibia 3.02153e-014
rfoot -8.70044 -11.9799
rtoes 6.05587
lfemur -7.01777 -14.8467 -10.875
ltibia 20.7568
lfoot -19.159 8.75822
ltoes -12.3267
8
root -10.5871 17.9059 -16.4483 -138.034 88.9092 -139.287
lowerback 6.55233 -0.164875 0.129165
upperback -1.61153 -0.100413 1.84856
thorax -5.35056 -0.0166936 1.85992
lowerneck -23.9239 -3.80981 -5.78526
upperneck 31.4178 -4.04698 3.60998
head 15.2158 -1.70921 1.74608
rclavicle -3.13707e-015 3.18055e-014
rhumerus -36.9024 -2.28505 -78.2745
rradius 26.6361
rwrist 26.8661
rhand -15.8043 -11.383
rfingers 7.12502
rthumb 10.389 -41.1064
lclavicle -3.13707e-015 3.18055e-014
lhumerus -33.683 9.22816 88.0676
lradius 23.261
lwrist 12.1893
lhand -30.6837 8.87552
lfingers 7.12502
lthumb -3.97772 38.8181
rfemur 7.22988 -9.49928 12.3034
rtibia -1.51076e-014
rfoot -8.62622 -12.0073
rtoes 5.58162
lfemur -6.964 -14.7509 -10.9113
ltibia 20.7998
lfoot -19.2296 8.7031
ltoes -12.2778
9
root -10.5797 17.9024 -16.4448 -137.398 88.9389 -138.631
lowerback 6.55799 -0.166299 0.145959
upperback -1.60008 -0.101811 1.83566
thorax -5.34176 -0.0182978 1.83713
lowerneck -23.9898 -3.74431 -5.71623
upperneck 31.716 -3.95559 3.57568
head 15.3608 -1.66182 1.74415
rclavicle -8.51047e-016 -2.38542e-015
rhumerus -36.9069 -2.2 -78.3406
rradius 26.6396
rwrist 26.749
rhand -15.9576 -11.6282
rfingers 7.12502
rthumb 10.2411 -41.3588
lclavicle -8.51047e-016 -2.38542e-015
lhumerus -33.6773 9.50594 87.9022
lradius 23.1167
lwrist 12.0276
lhand -30.7199 8.85111
lfingers 7.12502
lthumb -4.01266 38.7931
rfemur 7.2712 -9.46621 12.3081
rtibia -2.46493e-014
rfoot -8.54153 -12.0438
rtoes 5.03692
lfemur -6.93421 -14.6402 -10.9144
ltibia 20.8456
lfoot -19.2817 8.63543
ltoes -12.3565
10
root -10.5725 17.8997 -16.4407 -136.675 88.9498 -137.902
lowerback 6.55705 -0.1654 0.172589
upperback -1.58696 -0.0993312 1.82292
thorax -5.32759 -0.0183096 1.80846
lowerneck -24.0657 -3.69679 -5.62872
upperneck 32.0155 -3.88779 3.5138
head 15.5103 -1.62614 1.72257
rclavicle 1.11816e-016 -3.57812e-015
rhumerus -36.8826 -2.27853 -78.3412
rradius 26.6256
rwrist 26.843
rhand -16.0542 -11.6914
rfingers 7.12502
rthumb 10.1479 -41.4266
lclavicle 1.11816e-016 -3.57812e-015
lhumerus -33.65 9.77055 87.733
lradius 22.9495
lwrist 11.7623
lhand -30.7509 8.8366
lfingers 7.12502
lthumb -4.0426 38.778
rfemur 7.29713 -9.44806 12.3305
rtibia -1.35174e-014
rfoot -8.46271 -12.0818
rtoes 4.57159
lfemur -6.92097 -14.5003 -10.894
ltibia 20.8773
lfoot -19.2794 8.53802
ltoes -12.5814
11
root -10.5659 17.8977 -16.4355 -136.685 88.9461 -137.916
lowerback 6.56549 -0.161322 0.19487
upperback -1.57521 -0.0927709 1.81129
thorax -5.32031 -0.0160987 1.78304
lowerneck -24.1283 -3.67076 -5.53696
upperneck 32.2951 -3.84368 3.42339
head 15.6493 -1.60441 1.68283
rclavicle 7.0817e-016 -3.18055e-015
rhumerus -36.8315 -2.50419 -78.2669
rradius 26.5989
rwrist 27.1552
rhand -16.0404 -11.5438
rfingers 7.12502
rthumb 10.1612 -41.2784
lclavicle 7.0817e-016 -3.18055e-015
lhumerus -33.6129 9.98319 87.5802
lradius 22.7822
lwrist 11.4376
lhand -30.7771 8.83657
lfingers 7.12502
lthumb -4.06786 38.7775
rfemur 7.31305 -9.45098 12.3541
rtibia 7.95139e-015
rfoot -8.40573 -12.1136
rtoes 4.29073
lfemur -6.91781 -14.3325 -10.8646
ltibia 20.8846
lfoot -19.2096 8.41259
ltoes -12.9384
